<?xml version="1.0" encoding="UTF-8"?>
<svg version="1.1" xmlns="http://www.w3.org/2000/svg" width="250" height="250">
<path d="M0 0 C82.5 0 165 0 250 0 C250 82.5 250 165 250 250 C167.5 250 85 250 0 250 C0 167.5 0 85 0 0 Z " fill="#FCFCFC" transform="translate(0,0)"/>
<path d="M0 0 C82.5 0 165 0 250 0 C250 82.5 250 165 250 250 C167.5 250 85 250 0 250 C0 167.5 0 85 0 0 Z M35.65380859 50.13916016 C20.94162159 66.69308536 12.69416501 87.43406371 9 109 C8.81308594 109.93070312 8.62617188 110.86140625 8.43359375 111.8203125 C4.35144629 141.75606053 12.7773949 173.04346568 30.64111328 197.24804688 C34.43379684 202.13778766 38.68342645 206.57584829 43 211 C43.58007812 211.64195312 44.16015625 212.28390625 44.7578125 212.9453125 C54.41977108 223.38411197 67.19592741 230.22043038 80 236 C81.56621094 236.72509766 81.56621094 236.72509766 83.1640625 237.46484375 C110.11545841 248.92092806 142.52474243 247.93767837 169.5 237.25 C200.6781236 224.21403079 223.22226816 201.0598 236.24609375 170.03125 C247.30572048 140.7684244 247.41381536 108.75585335 234.859375 79.90136719 C229.86357814 68.84816663 223.74321553 59.32168804 216 50 C215.33097656 49.17757812 214.66195312 48.35515625 213.97265625 47.5078125 C202.25253933 33.65458636 186.54034741 24.02485798 170 17 C168.906875 16.4946875 167.81375 15.989375 166.6875 15.46875 C162.48015525 13.79294319 158.35889716 12.79689265 153.9375 11.875 C153.16083984 11.70613281 152.38417969 11.53726562 151.58398438 11.36328125 C107.12583158 1.80157862 66.0719327 17.40472527 35.65380859 50.13916016 Z " fill="#FDFEFD" transform="translate(0,0)"/>
<path d="M0 0 C5.56539748 2.51986513 10.6390733 5.52353841 13.48046875 11.1171875 C14.39379323 15.58403496 13.99959415 18.98455026 12.10546875 23.1171875 C10.48046875 25.1171875 10.48046875 25.1171875 8.48046875 26.1171875 C9.54265625 26.55289063 10.60484375 26.98859375 11.69921875 27.4375 C26.47504525 33.61448045 26.47504525 33.61448045 32.48046875 39.1171875 C33.15335937 39.71144531 33.82625 40.30570313 34.51953125 40.91796875 C44.37142697 50.12414097 50.46025781 62.5993925 51.48046875 76.1171875 C51.58359375 77.4165625 51.68671875 78.7159375 51.79296875 80.0546875 C51.58567275 95.18729543 45.03696318 110.42469959 34.48046875 121.1171875 C27.14875668 127.15897351 19.6582375 131.43101128 10.48046875 134.1171875 C9.49046875 134.4471875 8.50046875 134.7771875 7.48046875 135.1171875 C-9.74687366 136.5329462 -24.49808773 134.97652507 -38.51953125 124.1171875 C-45.69230008 118.02553165 -50.66148154 111.69197511 -54.51953125 103.1171875 C-54.92042969 102.25480469 -55.32132812 101.39242187 -55.734375 100.50390625 C-61.12388912 87.55756451 -60.52082702 73.13168354 -55.89453125 60.0546875 C-50.10930613 46.67769857 -39.05978208 35.28530037 -25.76953125 29.3046875 C-22.99383767 28.29049177 -20.43464245 27.55887101 -17.51953125 27.1171875 C-18.28265625 26.7459375 -19.04578125 26.3746875 -19.83203125 25.9921875 C-23.17141359 23.66238587 -24.19130356 21.95428973 -25.51953125 18.1171875 C-25.69977004 13.25074027 -24.40617383 10.58571307 -21.39453125 6.9296875 C-15.28593934 0.52250861 -8.87084873 -3.10823537 0 0 Z " fill="#FF3472" transform="translate(128.51953125,59.8828125)"/>
<path d="M0 0 C2.92096779 1.4604839 2.98184656 3.3969518 4.0625 6.4375 C8.343211 16.96404371 15.74784212 24.20219213 26 29 C33.64402115 31.76766283 41.94226455 31.6284054 50 32 C50.8904191 45.94989921 46.87799395 57.53477668 38.0703125 68.375 C29.9120533 77.22058506 18.57837211 83.7308086 6.3984375 84.3359375 C-10.66613662 84.64690924 -22.7746019 81.60422905 -35.5078125 69.64453125 C-40.9199911 64.02693993 -44.31120186 58.299709 -47 51 C-47.36996094 50.04351562 -47.73992187 49.08703125 -48.12109375 48.1015625 C-49.10379607 44.63371519 -49.19839961 41.72158098 -49.125 38.125 C-49.10695313 36.97257812 -49.08890625 35.82015625 -49.0703125 34.6328125 C-49.04710938 33.76398438 -49.02390625 32.89515625 -49 32 C-47.47632812 31.96132812 -47.47632812 31.96132812 -45.921875 31.921875 C-32.24427528 31.42314301 -21.10642303 29.02319487 -11.09765625 19.1171875 C-5.80458846 13.41007424 -2.71574633 7.24199022 0 0 Z " fill="#FFFDFD" transform="translate(124,106)"/>
<path d="M0 0 C0.89976562 0.20496094 1.79953125 0.40992188 2.7265625 0.62109375 C18.83597176 4.84522224 34.36200024 14.42152612 47 25 C47.73734375 25.60328125 48.4746875 26.2065625 49.234375 26.828125 C70.69731539 45.03461926 85.48423096 74.03843609 88 102 C88.22364317 106.4387247 88.29605249 110.86850845 88.3125 115.3125 C88.31797852 116.38516113 88.32345703 117.45782227 88.32910156 118.56298828 C88.23475675 129.14099379 86.60667899 139.18279062 83.375 149.25 C83.11775146 150.05501953 82.86050293 150.86003906 82.59545898 151.68945312 C79.86738257 159.88900411 76.22104707 167.47423367 72 175 C71.16855469 176.49273437 71.16855469 176.49273437 70.3203125 178.015625 C65.82252844 185.54779927 60.05743389 191.72745837 54 198 C52.88625 199.20849609 52.88625 199.20849609 51.75 200.44140625 C41.61875165 211.14998677 29.25424786 217.94091526 16 224 C14.44925781 224.72703125 14.44925781 224.72703125 12.8671875 225.46875 C-13.88688019 236.92479987 -46.61242432 235.96853474 -73.45556641 225.41894531 C-88.59315325 219.1242613 -101.1280639 210.19581243 -113 199 C-113.67675781 198.38769531 -114.35351562 197.77539062 -115.05078125 197.14453125 C-135.99350326 177.46089072 -147.32438681 147.39299986 -148.203125 119.08984375 C-148.37006984 107.97838077 -147.64527442 97.81012578 -145 87 C-144.73316406 85.845 -144.46632812 84.69 -144.19140625 83.5 C-139.18816502 63.93176765 -128.89946042 47.48942054 -115 33 C-114.23042969 32.16726562 -113.46085937 31.33453125 -112.66796875 30.4765625 C-84.05512046 0.43076058 -39.67268014 -9.5838497 0 0 Z M-53 4 C-54.07507813 4.20625 -55.15015625 4.4125 -56.2578125 4.625 C-77.30343779 9.00328611 -94.54283442 20.44894413 -110 35 C-110.60328125 35.53882813 -111.2065625 36.07765625 -111.828125 36.6328125 C-122.28461814 46.35637388 -129.23199415 59.11576117 -135 72 C-135.40992188 72.90878906 -135.81984375 73.81757812 -136.2421875 74.75390625 C-146.87569722 101.09038962 -145.40371148 131.92088037 -135 158 C-129.67091809 170.20796015 -122.83891772 181.05175756 -114 191 C-113.19949219 191.90105469 -112.39898437 192.80210937 -111.57421875 193.73046875 C-105.11816334 200.54578092 -97.76827949 205.81092145 -90 211 C-89.18015625 211.56589844 -88.3603125 212.13179687 -87.515625 212.71484375 C-65.47483772 227.04135548 -36.04819716 231.52386897 -10.4375 226.75 C-7.95045237 226.20123848 -5.47019069 225.62024439 -3 225 C-1.94296875 224.74476563 -0.8859375 224.48953125 0.203125 224.2265625 C27.6149641 216.71930003 52.43754616 198.51929506 67 174 C74.36183957 160.91621346 79.11916392 147.70961409 82 133 C82.29970703 131.58847656 82.29970703 131.58847656 82.60546875 130.1484375 C84.35360497 116.1979643 83.75268708 101.54296347 80 88 C79.75056641 87.05084717 79.75056641 87.05084717 79.49609375 86.08251953 C72.01600439 57.92829429 54.28830826 32.89785753 29 18 C3.63021736 3.73930517 -24.22950966 -1.97828371 -53 4 Z " fill="#0F5414" transform="translate(156,12)"/>
<path d="M0 0 C12.00405534 -1.09127776 23.01244162 5.3024524 32.03125 12.65625 C39.62517287 19.717266 44.20421935 29.11609311 47 39 C47 39.99 47 40.98 47 42 C34.64753874 42.55795308 24.81577027 42.24109404 14.75 34.125 C6.60630641 26.25319443 1.96774029 15.05682639 0 4 C0 2.68 0 1.36 0 0 Z " fill="#FFFBFC" transform="translate(127,91)"/>
<path d="M0 0 C-1.84239049 13.89065465 -5.28536421 25.13474952 -15.875 34.8125 C-23.21730411 39.95211288 -30.27803504 42.1636555 -39.1875 42.0625 C-39.93708984 42.05798828 -40.68667969 42.05347656 -41.45898438 42.04882812 C-43.30602383 42.03706354 -45.15302213 42.01912865 -47 42 C-44.75893635 28.55361813 -38.19742217 17.32719548 -27.36328125 8.96484375 C-18.91524384 3.28863031 -10.31088528 -0.77818002 0 0 Z " fill="#FFFCFD" transform="translate(122,91)"/>
<path d="M0 0 C0 2.64 0 5.28 0 8 C-3.67410785 9.17571451 -7.16929183 9.07366746 -11 9 C-11 10.32 -11 11.64 -11 13 C-6.545 12.505 -6.545 12.505 -2 12 C-1.505 15.96 -1.505 15.96 -1 20 C-4.96 20.495 -4.96 20.495 -9 21 C-8.505 26.445 -8.505 26.445 -8 32 C-10.38514771 33.19257386 -12.1558799 33.20771658 -14.8125 33.375 C-19.02192566 33.73840365 -21.43453701 34.69293571 -25 37 C-27.38222923 36.72774523 -28.86246601 36.06876699 -31 35 C-33.01652194 35.9662501 -35.01679982 36.96708324 -37 38 C-37.66 38 -38.32 38 -39 38 C-39 39.98 -39 41.96 -39 44 C-45.75 48 -45.75 48 -48 48 C-48.5742149 44.10457803 -49.14372513 40.20849944 -49.70898438 36.31176758 C-49.996238 34.33834479 -50.28715735 32.36545672 -50.578125 30.39257812 C-50.75859375 29.14541016 -50.9390625 27.89824219 -51.125 26.61328125 C-51.29257813 25.46641846 -51.46015625 24.31955566 -51.6328125 23.13793945 C-51.9550671 20.38399103 -52.07254211 17.76793505 -52 15 C-50.78074525 14.29507107 -49.5489894 13.61174099 -48.3125 12.9375 C-47.62800781 12.55464844 -46.94351563 12.17179687 -46.23828125 11.77734375 C-43.3310876 10.76769011 -41.89650196 10.98169853 -39 12 C-36.82421875 13.8203125 -36.82421875 13.8203125 -34.6875 16.125 C-31.18371943 19.79841268 -27.58951965 23.2015203 -23.7265625 26.4921875 C-22.0765055 27.9331875 -20.5408032 29.4440644 -19 31 C-19.09087891 30.40050537 -19.18175781 29.80101074 -19.27539062 29.18334961 C-19.68888026 26.43549895 -20.09449382 23.68653966 -20.5 20.9375 C-20.71462891 19.52307617 -20.71462891 19.52307617 -20.93359375 18.08007812 C-21.67809139 12.99267758 -22.17113566 8.1412006 -22 3 C-19.27172635 2.49465273 -16.54255306 1.99556155 -13.8125 1.5 C-13.04357422 1.35691406 -12.27464844 1.21382812 -11.48242188 1.06640625 C-7.60578227 0.36761285 -3.958529 -0.19039017 0 0 Z " fill="#0A510F" transform="translate(122,23)"/>
<path d="M0 0 C3.47153381 0.76403415 5.99770818 2.08186911 9 4 C7.56347895 8.91441412 5.45840385 13.00238358 2.875 17.375 C2.50246094 18.01566406 2.12992188 18.65632813 1.74609375 19.31640625 C0.83565998 20.88048477 -0.08148191 22.44065534 -1 24 C-0.21625 24.61875 0.5675 25.2375 1.375 25.875 C4 28 4 28 6 30 C6 30.66 6 31.32 6 32 C6.70608398 31.6918335 7.41216797 31.38366699 8.13964844 31.06616211 C11.33810214 29.67807948 14.54382382 28.30764508 17.75 26.9375 C18.86117187 26.45216797 19.97234375 25.96683594 21.1171875 25.46679688 C22.18710938 25.01240234 23.25703125 24.55800781 24.359375 24.08984375 C25.83615723 23.45357056 25.83615723 23.45357056 27.34277344 22.80444336 C30.19808869 21.94003103 31.3262855 21.72204912 34 23 C35.703125 24.84765625 35.703125 24.84765625 37.25 27.0625 C37.77078125 27.79597656 38.2915625 28.52945313 38.828125 29.28515625 C39.21484375 29.85105469 39.6015625 30.41695312 40 31 C39.65219482 31.63502441 39.30438965 32.27004883 38.94604492 32.92431641 C37.35873996 35.82393097 35.77310623 38.72445619 34.1875 41.625 C33.64029297 42.62402344 33.09308594 43.62304688 32.52929688 44.65234375 C29.93686285 49.3972836 27.36500869 54.13721019 25 59 C23.85073734 58.04578192 22.70569459 57.08647955 21.5625 56.125 C20.92441406 55.59132812 20.28632813 55.05765625 19.62890625 54.5078125 C18 53 18 53 17 51 C17.226875 50.21625 17.45375 49.4325 17.6875 48.625 C17.790625 47.75875 17.89375 46.8925 18 46 C16.12491838 43.7914234 16.12491838 43.7914234 14 42 C14 41.34 14 40.68 14 40 C12.02 40.66 10.04 41.32 8 42 C7.3503125 40.948125 7.3503125 40.948125 6.6875 39.875 C2.78318874 35.69829493 -1.95830374 33.59185794 -7 31 C-9.34719064 29.68928358 -11.67218872 28.34495763 -14 27 C-12.35526763 20.81663908 -9.07446913 15.60344134 -5.875 10.125 C-5.31167969 9.15046875 -4.74835938 8.1759375 -4.16796875 7.171875 C-2.78349637 4.77838038 -1.39406459 2.3879162 0 0 Z " fill="#09500E" transform="translate(172,34)"/>
<path d="M0 0 C5.36787898 1.88869816 8.45991584 4.91983169 11 10 C11.40435212 14.82889743 11.6440172 19.40690481 9.8125 23.9375 C6.62588749 27.56364527 3.3490896 30.68196941 -1.5390625 31.34375 C-7.36321661 31.63864388 -11.14524424 31.60323773 -15.6875 27.6875 C-19.45236847 23.96940008 -20.17543847 20.90305199 -20.3125 15.6875 C-20.25238649 10.62460639 -19.53873662 7.81811056 -16 4 C-11.0110418 -0.51381932 -6.43453578 -0.8593354 0 0 Z " fill="#084F0C" transform="translate(149,25)"/>
<path d="M0 0 C2.5 1 2.5 1 4 2 C0.66095512 7.88307907 -1.40089073 10.09359065 -8 12 C-8.36101683 15.24915145 -8.24958242 16.6352257 -6.375 19.375 C-4.02984454 21.34355919 -4.02984454 21.34355919 -0.75 20.75 C0.1575 20.5025 1.065 20.255 2 20 C2.309375 18.1746875 2.309375 18.1746875 2.625 16.3125 C3.78866557 11.49526679 6.00692215 9.77779328 10 7 C12.68553371 9.57363648 13.28392557 11.71271545 13.4375 15.3125 C13.24275432 20.05650469 12.14904685 23.41629598 9 27 C5.91193762 29.81620136 2.95966736 31.74349904 -1.23828125 32.29296875 C-7.38777468 32.00620481 -11.72065976 29.29943104 -16 25 C-18.96740895 20.64161811 -19.72102115 17.22740337 -19 12 C-15.16278105 3.25966795 -9.57453676 -0.92656807 0 0 Z " fill="#0A510F" transform="translate(57,56)"/>
<path d="M0 0 C4.51505778 2.33130434 8.16707046 4.75060569 11 9 C11.1875 12.625 11.1875 12.625 11 16 C8.34285458 18.65714542 0.63945491 17.23491532 -2.9375 17.25 C-4.15630859 17.270625 -5.37511719 17.29125 -6.63085938 17.3125 C-7.79294922 17.31765625 -8.95503906 17.3228125 -10.15234375 17.328125 C-11.7609729 17.34214355 -11.7609729 17.34214355 -13.40209961 17.35644531 C-14.6880603 17.18000488 -14.6880603 17.18000488 -16 17 C-18 14 -18 14 -18.125 11.25 C-15.41889149 3.43235318 -7.98212924 -0.88690325 0 0 Z " fill="#FDF0F9" transform="translate(126,64)"/>
<path d="M0 0 C2.475 0.99 2.475 0.99 5 2 C4.72285156 2.94101563 4.44570313 3.88203125 4.16015625 4.8515625 C3.79792969 6.09679687 3.43570313 7.34203125 3.0625 8.625 C2.70285156 9.85476562 2.34320313 11.08453125 1.97265625 12.3515625 C-2.30340934 28.3911017 -1.33838753 46.00050256 3.90625 61.6484375 C5 65 5 65 5 68 C2.525 68.495 2.525 68.495 0 69 C-0.63725963 67.40066393 -1.25893354 65.79511868 -1.875 64.1875 C-2.22304688 63.29417969 -2.57109375 62.40085938 -2.9296875 61.48046875 C-5.5348681 53.00887783 -6.36312591 44.6448329 -6.3125 35.8125 C-6.30903564 34.81726318 -6.30557129 33.82202637 -6.30200195 32.79663086 C-6.1365516 21.44819909 -4.58389024 10.4774634 0 0 Z " fill="#0F5413" transform="translate(36,94)"/>
<path d="M0 0 C1.32 0 2.64 0 4 0 C9.28626157 19.72908335 6.37181119 40.83360213 -1.40234375 59.3671875 C-3 62 -3 62 -5.19140625 62.8828125 C-6.08666016 62.94082031 -6.08666016 62.94082031 -7 63 C-8.5396759 59.08509239 -7.36370164 56.81389261 -5.75 53.0625 C0.47101704 37.3453344 2.07678664 20.61627317 -0.578125 3.8046875 C-0.71734375 2.87914063 -0.8565625 1.95359375 -1 1 C-0.67 0.67 -0.34 0.34 0 0 Z " fill="#0E5413" transform="translate(207,104)"/>
<path d="M0 0 C3.5625 0.4375 3.5625 0.4375 6 2.125 C7.5625 4.4375 7.5625 4.4375 8.25 6.75 C7.13997898 11.08917309 3.84121609 13.53516713 0.5625 16.4375 C-1.47869788 14.82155168 -3.47822937 13.1518618 -5.4375 11.4375 C-5.4375 10.7775 -5.4375 10.1175 -5.4375 9.4375 C-6.4275 9.7675 -7.4175 10.0975 -8.4375 10.4375 C-8.004375 11.5203125 -8.004375 11.5203125 -7.5625 12.625 C-6.52083333 15.22916667 -5.47916667 17.83333333 -4.4375 20.4375 C-5.4275 20.7675 -6.4175 21.0975 -7.4375 21.4375 C-12.4375 15.6875 -12.4375 15.6875 -12.4375 13.4375 C-14.0875 14.0975 -15.7375 14.7575 -17.4375 15.4375 C-17.7675 14.4475 -18.0975 13.4575 -18.4375 12.4375 C-17.19033203 11.51517578 -17.19033203 11.51517578 -15.91796875 10.57421875 C-14.82021657 9.75794149 -13.72256563 8.94152807 -12.625 8.125 C-12.07779297 7.72087891 -11.53058594 7.31675781 -10.96679688 6.90039062 C-8.76372962 5.25810413 -6.65842743 3.67081589 -4.765625 1.671875 C-3.4375 0.4375 -3.4375 0.4375 0 0 Z " fill="#16591B" transform="translate(186.4375,182.5625)"/>
<path d="M0 0 C0.99 2.97 1.98 5.94 3 9 C3.33 6.36 3.66 3.72 4 1 C8 1 8 1 9.75 2.375 C11 4 11 4 11 6 C11.66 6 12.32 6 13 6 C13 4.35 13 2.7 13 1 C14.32 0.67 15.64 0.34 17 0 C17 4.62 17 9.24 17 14 C15.68 14 14.36 14 13 14 C10.75 11.5 10.75 11.5 9 9 C8.67 10.65 8.34 12.3 8 14 C5.36 14 2.72 14 0 14 C-0.33 12.68 -0.66 11.36 -1 10 C-2.98 10 -4.96 10 -7 10 C-7 10.66 -7 11.32 -7 12 C-8.32 12 -9.64 12 -11 12 C-9.02241502 6.06724506 -6.672377 0 0 0 Z " fill="#155819" transform="translate(115,206)"/>
<path d="M0 0 C1.77049689 -0.05410687 3.54146849 -0.09284119 5.3125 -0.125 C6.29863281 -0.14820313 7.28476563 -0.17140625 8.30078125 -0.1953125 C11 0 11 0 14 2 C14.77732794 8.99595142 14.77732794 8.99595142 12.5 11.9375 C8.99361154 13.42771509 5.79636056 13.68363662 2 14 C0.66416101 9.15758367 -0.25328119 5.06562383 0 0 Z " fill="#135717" transform="translate(133,206)"/>
<path d="M0 0 C3.375 0.875 3.375 0.875 5.375 2.875 C6.05181895 9.98159898 6.05181895 9.98159898 3.8125 12.9375 C0.3242992 14.27911569 -2.05025344 13.80178615 -5.625 12.875 C-7.95249345 9.38375983 -8.12799316 7.98277749 -7.625 3.875 C-5.30290294 0.25252859 -4.34513693 -0.14983231 0 0 Z " fill="#FF3170" transform="translate(143.625,142.125)"/>
<path d="M0 0 C3.375 0.9375 3.375 0.9375 5.375 3.9375 C6.03454774 10.09327889 6.03454774 10.09327889 3.8125 12.9375 C0.32357191 14.36885511 -2.02255972 13.871466 -5.625 12.9375 C-7.95249345 9.44625983 -8.12799316 8.04527749 -7.625 3.9375 C-5.31085172 0.32742869 -4.32918251 -0.07464108 0 0 Z " fill="#FF3170" transform="translate(108.625,142.0625)"/>
<path d="M0 0 C5.05510556 0.44603873 7.40166738 2.64700824 11 6 C12.49106457 8.98212913 12.11941467 11.71609658 12 15 C11 16 11 16 8.27734375 16.09765625 C7.17519531 16.08605469 6.07304687 16.07445313 4.9375 16.0625 C3.83277344 16.05347656 2.72804688 16.04445313 1.58984375 16.03515625 C0.30787109 16.01775391 0.30787109 16.01775391 -1 16 C-0.67 14.02 -0.34 12.04 0 10 C0.99 10 1.98 10 3 10 C3 8.35 3 6.7 3 5 C2.01 5 1.02 5 0 5 C0 3.35 0 1.7 0 0 Z " fill="#FEF8FB" transform="translate(125,65)"/>
<path d="M0 0 C2 2 2 2 2.3125 5.9375 C2.2339218 8.48435809 2.13665953 9.75704973 0.875 12 C-1.85631647 13.45670212 -3.96010077 13.32339354 -7 13 C-9 11 -9 11 -9.3125 7.0625 C-9.2339218 4.51564191 -9.13665953 3.24295027 -7.875 1 C-5.14368353 -0.45670212 -3.03989923 -0.32339354 0 0 Z " fill="#F7F9F7" transform="translate(148,34)"/>
<path d="M0 0 C0.99 2.97 1.98 5.94 3 9 C3.33 6.36 3.66 3.72 4 1 C4.33 1 4.66 1 5 1 C5 5.29 5 9.58 5 14 C3.35 14 1.7 14 0 14 C-0.33 12.68 -0.66 11.36 -1 10 C-2.98 10 -4.96 10 -7 10 C-7 10.66 -7 11.32 -7 12 C-8.32 12 -9.64 12 -11 12 C-9.02241502 6.06724506 -6.672377 0 0 0 Z " fill="#246328" transform="translate(115,206)"/>
<path d="M0 0 C3.39859703 1.46966358 5.64963709 3.38037514 8.25 6 C8.95640625 6.70125 9.6628125 7.4025 10.390625 8.125 C12 10 12 10 12 12 C9.98177083 11.70703125 7.96354167 11.4140625 5.9453125 11.12109375 C3.91859333 10.8315703 3.91859333 10.8315703 2 12 C1.67 12.99 1.34 13.98 1 15 C0.01 15 -0.98 15 -2 15 C-2.19392201 9.47322267 -1.7479503 5.24385089 0 0 Z " fill="#165A1B" transform="translate(151,202)"/>
<path d="M0 0 C7.14893617 -0.56737589 7.14893617 -0.56737589 11 2 C11 2.99 11 3.98 11 5 C8.03 4.67 5.06 4.34 2 4 C2 5.65 2 7.3 2 9 C3.32 9.33 4.64 9.66 6 10 C6 9.01 6 8.02 6 7 C7.32 7 8.64 7 10 7 C9.67 8.98 9.34 10.96 9 13 C1.76102088 13.48259861 1.76102088 13.48259861 -1.5625 11.375 C-3 9 -3 9 -2.875 5.9375 C-2 3 -2 3 0 0 Z " fill="#115616" transform="translate(95,203)"/>
<path d="M0 0 C1.32 0.33 2.64 0.66 4 1 C2.68 4.3 1.36 7.6 0 11 C1.32 11 2.64 11 4 11 C5.32 8.36 6.64 5.72 8 3 C8.99 3.33 9.98 3.66 11 4 C10.46823628 8.51999163 8.97021532 11.54812814 6 15 C2.7273991 15.60108996 0.9920525 15.5952315 -1.875 13.875 C-3.55082674 11.08195544 -3.37793949 9.21248566 -3 6 C-1.5 2.625 -1.5 2.625 0 0 Z " fill="#135718" transform="translate(83,196)"/>
<path d="M0 0 C1.32 0.33 2.64 0.66 4 1 C4 2.32 4 3.64 4 5 C4.99 5 5.98 5 7 5 C7 6.65 7 8.3 7 10 C6.01 10 5.02 10 4 10 C4 11.65 4 13.3 4 15 C2.68 15 1.36 15 0 15 C0 13.35 0 11.7 0 10 C-0.99 10 -1.98 10 -3 10 C-3 8.35 -3 6.7 -3 5 C-2.01 5 -1.02 5 0 5 C0 3.35 0 1.7 0 0 Z " fill="#D417EF" transform="translate(121,65)"/>
<path d="M0 0 C2.72426311 2.35277269 3.8141763 4.62496331 5 8 C7.31 7.34 9.62 6.68 12 6 C12 7.32 12 8.64 12 10 C9.1875 11.5625 9.1875 11.5625 6 13 C2.3392481 11.77974937 2.07660559 10.873509 0.3125 7.5625 C-0.12449219 6.75941406 -0.56148437 5.95632812 -1.01171875 5.12890625 C-2 3 -2 3 -2 1 C-1.34 0.67 -0.68 0.34 0 0 Z " fill="#175A1C" transform="translate(164,197)"/>
<path d="M0 0 C2.625 0.25 2.625 0.25 4.4375 1.75 C4.829375 2.245 5.22125 2.74 5.625 3.25 C4.305 3.58 2.985 3.91 1.625 4.25 C1.625 5.24 1.625 6.23 1.625 7.25 C-0.025 6.92 -1.675 6.59 -3.375 6.25 C-3.417721 4.58388095 -3.41563832 2.91617115 -3.375 1.25 C-2.375 0.25 -2.375 0.25 0 0 Z " fill="#E4ECE5" transform="translate(99.375,205.75)"/>
<path d="M0 0 C1.98 0 3.96 0 6 0 C6.625 2.375 6.625 2.375 7 5 C6.34 5.66 5.68 6.32 5 7 C3.68 7 2.36 7 1 7 C0.67 4.69 0.34 2.38 0 0 Z " fill="#EDF2ED" transform="translate(137,209)"/>
<path d="M0 0 C1.65 0.33 3.3 0.66 5 1 C5 2.65 5 4.3 5 6 C3.02 6.99 3.02 6.99 1 8 C0.01 6.68 -0.98 5.36 -2 4 C-1.34 2.68 -0.68 1.36 0 0 Z " fill="#EAF0EB" transform="translate(185,186)"/>
<path d="M0 0 C-0.66 1.65 -1.32 3.3 -2 5 C-2.99 5 -3.98 5 -5 5 C-5.33 4.01 -5.66 3.02 -6 2 C-2.25 0 -2.25 0 0 0 Z " fill="#E7EEE8" transform="translate(199,68)"/>
<path d="M0 0 C1.65 1.65 3.3 3.3 5 5 C3.35 5.33 1.7 5.66 0 6 C0 4.02 0 2.04 0 0 Z " fill="#EBF1EC" transform="translate(81,47)"/>
</svg>
